<svg id="visual" viewBox="0 0 900 300" width="900" height="300" xmlns="http://www.w3.org/2000/svg" xmlns:xlink="http://www.w3.org/1999/xlink" version="1.1"><rect x="0" y="0" width="900" height="300" fill="#bacce4"></rect><path d="M0 227L21.5 215.8C43 204.7 86 182.3 128.8 172.3C171.7 162.3 214.3 164.7 257.2 179.2C300 193.7 343 220.3 385.8 229.8C428.7 239.3 471.3 231.7 514.2 222.8C557 214 600 204 642.8 195.7C685.7 187.3 728.3 180.7 771.2 178.3C814 176 857 178 878.5 179L900 180L900 0L878.5 0C857 0 814 0 771.2 0C728.3 0 685.7 0 642.8 0C600 0 557 0 514.2 0C471.3 0 428.7 0 385.8 0C343 0 300 0 257.2 0C214.3 0 171.7 0 128.8 0C86 0 43 0 21.5 0L0 0Z" fill="#c62368"></path><path d="M0 166L21.5 158C43 150 86 134 128.8 139.7C171.7 145.3 214.3 172.7 257.2 177.8C300 183 343 166 385.8 153.5C428.7 141 471.3 133 514.2 138.8C557 144.7 600 164.3 642.8 177C685.7 189.7 728.3 195.3 771.2 197.5C814 199.7 857 198.3 878.5 197.7L900 197L900 0L878.5 0C857 0 814 0 771.2 0C728.3 0 685.7 0 642.8 0C600 0 557 0 514.2 0C471.3 0 428.7 0 385.8 0C343 0 300 0 257.2 0C214.3 0 171.7 0 128.8 0C86 0 43 0 21.5 0L0 0Z" fill="#d53867"></path><path d="M0 108L21.5 111.2C43 114.3 86 120.7 128.8 125.5C171.7 130.3 214.3 133.7 257.2 134.3C300 135 343 133 385.8 124.7C428.7 116.3 471.3 101.7 514.2 103.5C557 105.3 600 123.7 642.8 125.8C685.7 128 728.3 114 771.2 111.2C814 108.3 857 116.7 878.5 120.8L900 125L900 0L878.5 0C857 0 814 0 771.2 0C728.3 0 685.7 0 642.8 0C600 0 557 0 514.2 0C471.3 0 428.7 0 385.8 0C343 0 300 0 257.2 0C214.3 0 171.7 0 128.8 0C86 0 43 0 21.5 0L0 0Z" fill="#e34c67"></path><path d="M0 68L21.5 71.2C43 74.3 86 80.7 128.8 87C171.7 93.3 214.3 99.7 257.2 96.3C300 93 343 80 385.8 79.5C428.7 79 471.3 91 514.2 89.8C557 88.7 600 74.3 642.8 70.8C685.7 67.3 728.3 74.7 771.2 74C814 73.3 857 64.7 878.5 60.3L900 56L900 0L878.5 0C857 0 814 0 771.2 0C728.3 0 685.7 0 642.8 0C600 0 557 0 514.2 0C471.3 0 428.7 0 385.8 0C343 0 300 0 257.2 0C214.3 0 171.7 0 128.8 0C86 0 43 0 21.5 0L0 0Z" fill="#ef5f67"></path><path d="M0 49L21.5 49.8C43 50.7 86 52.3 128.8 52C171.7 51.7 214.3 49.3 257.2 52.3C300 55.3 343 63.7 385.8 63C428.7 62.3 471.3 52.7 514.2 47.3C557 42 600 41 642.8 42.3C685.7 43.7 728.3 47.3 771.2 52.8C814 58.3 857 65.7 878.5 69.3L900 73L900 0L878.5 0C857 0 814 0 771.2 0C728.3 0 685.7 0 642.8 0C600 0 557 0 514.2 0C471.3 0 428.7 0 385.8 0C343 0 300 0 257.2 0C214.3 0 171.7 0 128.8 0C86 0 43 0 21.5 0L0 0Z" fill="#fa7268"></path></svg>