<svg id="visual" viewBox="0 0 900 100" width="900" height="100" xmlns="http://www.w3.org/2000/svg" xmlns:xlink="http://www.w3.org/1999/xlink" version="1.1"><rect x="0" y="0" width="900" height="100" fill="#0cac3c"></rect><path d="M0 68L21.5 69C43 70 86 72 128.8 72.8C171.7 73.7 214.3 73.3 257.2 70.7C300 68 343 63 385.8 62.2C428.7 61.3 471.3 64.7 514.2 64.7C557 64.7 600 61.3 642.8 61C685.7 60.7 728.3 63.3 771.2 62.5C814 61.7 857 57.3 878.5 55.2L900 53L900 0L878.5 0C857 0 814 0 771.2 0C728.3 0 685.7 0 642.8 0C600 0 557 0 514.2 0C471.3 0 428.7 0 385.8 0C343 0 300 0 257.2 0C214.3 0 171.7 0 128.8 0C86 0 43 0 21.5 0L0 0Z" fill="#fa7268"></path><path d="M0 48L21.5 45.8C43 43.7 86 39.3 128.8 40.3C171.7 41.3 214.3 47.7 257.2 49.5C300 51.3 343 48.7 385.8 46.2C428.7 43.7 471.3 41.3 514.2 43.5C557 45.7 600 52.3 642.8 53.8C685.7 55.3 728.3 51.7 771.2 48.5C814 45.3 857 42.7 878.5 41.3L900 40L900 0L878.5 0C857 0 814 0 771.2 0C728.3 0 685.7 0 642.8 0C600 0 557 0 514.2 0C471.3 0 428.7 0 385.8 0C343 0 300 0 257.2 0C214.3 0 171.7 0 128.8 0C86 0 43 0 21.5 0L0 0Z" fill="#ef5f67"></path><path d="M0 40L21.5 40.7C43 41.3 86 42.7 128.8 43C171.7 43.3 214.3 42.7 257.2 41.8C300 41 343 40 385.8 38.7C428.7 37.3 471.3 35.7 514.2 35.5C557 35.3 600 36.7 642.8 36C685.7 35.3 728.3 32.7 771.2 33C814 33.3 857 36.7 878.5 38.3L900 40L900 0L878.5 0C857 0 814 0 771.2 0C728.3 0 685.7 0 642.8 0C600 0 557 0 514.2 0C471.3 0 428.7 0 385.8 0C343 0 300 0 257.2 0C214.3 0 171.7 0 128.8 0C86 0 43 0 21.5 0L0 0Z" fill="#e34c67"></path><path d="M0 27L21.5 26.2C43 25.3 86 23.7 128.8 23.7C171.7 23.7 214.3 25.3 257.2 25.2C300 25 343 23 385.8 23C428.7 23 471.3 25 514.2 25C557 25 600 23 642.8 23.2C685.7 23.3 728.3 25.7 771.2 27.2C814 28.7 857 29.3 878.5 29.7L900 30L900 0L878.5 0C857 0 814 0 771.2 0C728.3 0 685.7 0 642.8 0C600 0 557 0 514.2 0C471.3 0 428.7 0 385.8 0C343 0 300 0 257.2 0C214.3 0 171.7 0 128.8 0C86 0 43 0 21.5 0L0 0Z" fill="#d53867"></path><path d="M0 20L21.5 19.8C43 19.7 86 19.3 128.8 19C171.7 18.7 214.3 18.3 257.2 17.7C300 17 343 16 385.8 15C428.7 14 471.3 13 514.2 14C557 15 600 18 642.8 17.3C685.7 16.7 728.3 12.3 771.2 10.3C814 8.3 857 8.7 878.5 8.8L900 9L900 0L878.5 0C857 0 814 0 771.2 0C728.3 0 685.7 0 642.8 0C600 0 557 0 514.2 0C471.3 0 428.7 0 385.8 0C343 0 300 0 257.2 0C214.3 0 171.7 0 128.8 0C86 0 43 0 21.5 0L0 0Z" fill="#c62368"></path></svg>