<svg id="visual" viewBox="0 0 900 150" width="900" height="150" xmlns="http://www.w3.org/2000/svg" xmlns:xlink="http://www.w3.org/1999/xlink" version="1.1"><rect x="0" y="0" width="900" height="150" fill="#0cac3c"></rect><path d="M0 86L13.7 88C27.3 90 54.7 94 82 91.3C109.3 88.7 136.7 79.3 163.8 72.7C191 66 218 62 245.2 68.5C272.3 75 299.7 92 327 92.3C354.3 92.7 381.7 76.3 409 71.8C436.3 67.3 463.7 74.7 491 74.8C518.3 75 545.7 68 573 71.2C600.3 74.3 627.7 87.7 654.8 86.8C682 86 709 71 736.2 64.3C763.3 57.7 790.7 59.3 818 68.2C845.3 77 872.7 93 886.3 101L900 109L900 0L886.3 0C872.7 0 845.3 0 818 0C790.7 0 763.3 0 736.2 0C709 0 682 0 654.8 0C627.7 0 600.3 0 573 0C545.7 0 518.3 0 491 0C463.7 0 436.3 0 409 0C381.7 0 354.3 0 327 0C299.7 0 272.3 0 245.2 0C218 0 191 0 163.8 0C136.7 0 109.3 0 82 0C54.7 0 27.3 0 13.7 0L0 0Z" fill="#c24166" stroke-linecap="round" stroke-linejoin="miter"></path></svg>